<svg version="1.1" id="Layer_1" xmlns="http://www.w3.org/2000/svg" xmlns:xlink="http://www.w3.org/1999/xlink" x="0px" y="0px"
	 width="100%" viewBox="0 0 720 480" enable-background="new 0 0 720 480" xml:space="preserve">
<path fill="#000000" opacity="1.000000" stroke="none" 
	d="
M607.000000,481.000000 
	C469.977356,481.000000 332.954712,481.000000 195.546631,480.800995 
	C195.191269,477.741180 192.690338,478.447205 191.220871,478.001404 
	C186.505585,476.570984 182.365479,473.707367 180.544540,469.571747 
	C178.181625,464.205200 174.391510,462.918396 169.486404,463.022461 
	C162.271729,463.175476 155.206619,462.201569 148.154037,460.884674 
	C140.062103,459.373688 134.271576,454.660950 131.886688,447.030609 
	C129.993179,440.972473 126.019310,437.137451 121.518517,433.442474 
	C116.080276,428.977814 111.956314,423.525604 110.325668,416.710480 
	C108.236946,407.980865 106.308212,399.189301 105.790901,390.157501 
	C105.029762,376.868530 104.993568,363.455322 103.026093,350.338379 
	C100.364632,332.594757 98.977203,314.945099 101.145905,297.133698 
	C102.943588,282.369568 100.977951,267.492706 102.899879,252.736557 
	C104.735603,238.642288 104.768478,224.514359 102.959190,210.388916 
	C101.599197,199.771210 102.021233,189.111816 102.565094,178.465042 
	C103.218582,165.672134 105.253090,152.786163 104.298264,140.120789 
	C103.347252,127.505989 106.114563,115.649002 107.700111,103.511177 
	C108.411461,98.065613 111.175430,93.536896 116.927597,92.269547 
	C123.026527,90.925804 129.150955,90.323677 133.834015,96.195839 
	C138.296997,101.792015 142.812027,107.553360 149.219849,110.997208 
	C157.735321,115.573799 166.015320,120.360336 173.205215,126.930618 
	C175.494095,129.022232 178.666367,129.274704 181.744232,128.931793 
	C185.383804,128.526306 189.078857,128.349792 192.641068,127.574257 
	C200.427811,125.878983 206.799103,121.718880 211.317841,115.149635 
	C215.312866,109.341774 215.186111,103.101189 210.654587,97.549065 
	C206.195068,92.085190 203.793945,85.941200 202.026276,79.229515 
	C200.657455,74.032204 202.070404,68.913315 201.374878,63.853264 
	C199.757050,52.083523 201.068024,40.598450 203.950989,29.200476 
	C206.330505,19.792837 202.183502,10.955857 201.563782,1.810678 
	C201.544708,1.529012 201.195374,1.269724 201.000000,1.000002 
	C304.689301,1.000000 408.378571,1.000000 512.310303,1.174662 
	C512.106995,2.015197 511.278290,2.678233 511.273315,3.347377 
	C511.205261,12.533216 510.912231,21.863735 521.479736,26.363115 
	C522.061646,26.610886 522.482056,27.228449 522.991760,27.657051 
	C536.474243,38.993580 549.275696,51.172531 563.788635,61.235466 
	C570.373230,65.801041 575.481934,71.508865 579.552917,78.341400 
	C588.416748,93.217987 597.390930,108.015038 605.455383,123.365532 
	C615.720703,142.905151 624.826965,162.816895 628.918701,184.689499 
	C629.415588,187.345627 630.966675,189.529388 632.189331,191.894363 
	C635.758484,198.798111 641.310364,204.716019 642.951416,212.568359 
	C645.217957,223.413223 645.769043,234.383560 644.166687,245.361099 
	C641.800415,261.571350 643.516174,277.233215 649.730591,292.410919 
	C651.508789,296.753876 652.241089,301.380768 652.959717,305.994415 
	C655.179871,320.247864 653.624512,334.277985 649.945801,348.062836 
	C644.628662,367.986755 642.141418,388.231262 641.927917,408.813568 
	C641.853088,416.029755 640.640869,423.103119 637.687805,429.740143 
	C635.574707,434.489166 635.157959,439.212067 636.156677,444.338776 
	C637.708130,452.302917 636.203308,455.456635 628.704834,458.477966 
	C619.470093,462.198883 613.286499,469.281799 607.074402,476.457458 
	C605.876953,477.840698 604.581116,479.451141 607.000000,481.000000 
M310.558472,353.928467 
	C309.179688,357.179321 307.800934,360.430176 306.422180,363.681030 
	C309.993652,360.917786 311.271698,356.901459 313.343658,353.367218 
	C322.396057,337.926239 331.473419,322.499542 340.452759,307.016083 
	C350.362549,289.928192 360.189941,272.792358 370.017792,255.657104 
	C372.004578,252.192978 373.695892,248.705124 373.676941,244.448059 
	C373.563354,218.962112 373.672058,193.475220 373.578491,167.989120 
	C373.558350,162.502670 372.559418,156.955765 370.629730,151.928604 
	C363.117096,132.356461 347.538544,122.115105 326.753632,121.591438 
	C299.118988,120.895210 271.453979,121.393143 243.802032,121.402908 
	C237.402985,121.405167 235.401169,123.317780 235.398148,129.714615 
	C235.368683,192.181381 235.366318,254.648148 235.397034,317.114929 
	C235.400696,324.589294 237.490570,326.596466 244.909515,326.604218 
	C268.063873,326.628418 291.218231,326.608734 314.372528,326.650269 
	C316.487396,326.654053 318.700500,326.196411 321.450256,327.831390 
	C317.991119,336.257111 314.493378,344.776764 310.558472,353.928467 
M476.013458,259.537842 
	C462.699371,254.237320 448.993042,250.616623 434.665955,249.318604 
	C427.763428,248.693237 420.782013,248.360855 414.104858,246.103195 
	C406.103882,243.397919 400.621094,240.086716 401.540833,228.632492 
	C401.801331,225.388733 402.357117,221.823013 400.097839,218.637756 
	C396.475708,221.960175 395.252716,226.250687 393.079956,229.929535 
	C386.497437,241.074844 380.249573,252.417221 373.787292,263.634430 
	C371.836792,267.020111 372.590424,269.829163 375.480652,271.945709 
	C379.495819,274.886078 383.613037,277.726288 388.366638,279.449036 
	C404.053558,285.134094 420.398315,287.528076 436.853210,289.714172 
	C454.182922,292.016449 461.975403,298.811371 460.384399,314.740723 
	C460.252502,316.061432 460.510834,317.432068 460.298004,318.732056 
	C458.265656,331.144897 454.572205,334.358734 444.050720,335.212616 
	C435.280121,335.924347 426.398193,335.587524 417.579254,335.298737 
	C406.748993,334.944092 401.657135,329.379486 401.620819,318.540985 
	C401.614685,316.709473 401.736328,314.855621 401.501129,313.050903 
	C400.851074,308.063354 398.202179,305.518707 393.240417,305.443481 
	C384.747284,305.314697 376.248383,305.303894 367.756226,305.468292 
	C362.653381,305.567078 360.565735,307.767365 360.424103,312.945374 
	C360.256165,319.086090 360.280396,325.212036 361.380707,331.321075 
	C365.621918,354.868561 381.631897,367.198730 402.648956,370.520081 
	C416.167908,372.656494 429.877258,371.446320 443.503418,371.596954 
	C454.206879,371.715271 464.565063,370.294769 474.521667,365.832581 
	C486.911346,360.279938 494.867767,350.910156 498.515808,338.233612 
	C502.124786,325.692932 502.119476,312.802795 500.794800,299.744934 
	C499.034882,282.397217 492.289581,268.590698 476.013458,259.537842 
M457.041473,166.434769 
	C450.805634,166.017670 444.569824,165.600555 437.805878,165.148132 
	C441.081360,154.151443 446.889191,144.702057 449.184357,133.991440 
	C447.646118,135.809341 446.672729,137.896729 445.443848,139.820892 
	C433.538208,158.462051 423.317749,178.085587 412.018188,197.079330 
	C411.272827,198.332260 410.060760,199.594391 411.236176,201.151367 
	C412.243256,202.485382 413.692780,201.749725 414.965942,201.636017 
	C424.229156,200.808670 433.440186,200.103317 442.767212,201.546936 
	C451.744415,202.936401 454.289032,204.936234 456.642334,213.699799 
	C457.535370,217.025421 457.186798,220.306183 457.394257,223.607727 
	C457.668549,227.973862 460.029938,230.477676 464.336975,230.549133 
	C473.667114,230.703949 483.001740,230.616669 492.334320,230.578171 
	C495.596863,230.564713 498.103210,228.819550 498.394958,225.711456 
	C499.715698,211.640656 497.698212,198.154114 489.790222,186.089722 
	C482.271362,174.618973 470.852631,169.283707 457.041473,166.434769 
z"/>
<path fill="#000000" opacity="1.000000" stroke="none" 
	d="
M332.679932,168.865143 
	C333.658203,171.362106 333.361176,173.553482 333.362488,175.702072 
	C333.381958,207.845840 333.385864,239.989639 333.371368,272.133423 
	C333.365051,286.093140 328.046478,291.382080 314.052307,291.399963 
	C303.559784,291.413361 293.065399,291.288055 282.575653,291.459076 
	C278.429840,291.526611 276.559540,290.279419 276.571594,285.787415 
	C276.682129,244.650360 276.650452,203.512848 276.603607,162.375534 
	C276.600189,159.365631 277.165100,156.749344 280.657837,156.780029 
	C294.110718,156.898209 307.567902,155.775162 321.024078,157.427826 
	C327.945496,158.277893 331.377472,161.984604 332.679932,168.865143 
z"/>
</svg>
